<svg width="38" height="32" viewBox="0 0 38 32" fill="none" xmlns="http://www.w3.org/2000/svg">
<path d="M34.7603 0.282482C34.7603 0.282482 38.2756 -1.1026 37.9827 2.26131C37.885 3.64647 37.0062 8.49447 36.3227 13.7382L33.9791 29.2717C33.9791 29.2717 33.7839 31.5473 32.0262 31.943C30.2685 32.3388 27.6322 30.5579 27.1439 30.1621C26.7533 29.8653 19.8204 25.413 17.3792 23.2364C16.6957 22.6428 15.9145 21.4554 17.4768 20.0703L27.7298 10.1765C28.9016 8.98921 30.0733 6.21888 25.191 9.5828L11.5205 18.982C11.5205 18.982 9.95807 19.9714 7.02873 19.0809L0.681671 17.1022C0.681671 17.1022 -1.66186 15.6181 2.34166 14.134C12.1064 9.4838 24.1169 4.73473 34.7603 0.282482Z" fill="white"/>
</svg>
