<svg width="800" height="200" viewBox="0 0 800 200" fill="none" xmlns="http://www.w3.org/2000/svg">
<path d="M142.206 0.722582C140.7 2.32865 135.399 9.56638 126.447 22.1855C123.992 25.627 121.083 29.7152 119.928 31.2587C117.267 34.888 116.649 35.9518 112.832 43.4189C111.079 46.8396 109.388 49.9266 109.037 50.2604C107.861 51.4493 107.077 51.2824 104.499 49.3009C102.725 47.9243 101.838 47.528 100.477 47.528C99.6102 47.528 99.4452 47.4654 99.4452 47.1317C99.4452 46.2973 97.795 43.3772 96.8255 42.5429C96.3098 42.0632 95.7942 41.6877 95.6704 41.6877C95.4229 41.6877 93.2776 42.8975 92.8032 43.3146C92.2875 43.7527 92.3287 43.6275 93.2982 41.5834C93.9996 40.1025 94.1646 39.4976 94.2471 38.2044L94.3502 36.6192L92.5969 34.9297C90.8848 33.2402 90.8642 33.2402 90.6167 31.7802C90.1628 29.1938 89.8122 28.422 88.6983 27.4834C88.1414 27.0037 87.6463 26.4614 87.5844 26.2736C87.5225 26.0859 87.6257 24.8553 87.7907 23.5412C88.3476 19.2236 88.1414 15.3649 87.1512 12.2779C86.5943 10.5258 85.7898 9.31608 85.4185 9.69153C85.2948 9.81667 85.0885 11.1724 84.9853 12.6951C84.7172 16.4912 84.2221 18.7648 82.345 24.751C77.8895 38.9136 77.415 41.1871 77.1675 49.9683L76.9819 56.038L75.7648 59.3545C73.8671 64.4438 73.599 65.7787 73.7021 69.3037C73.8052 72.6619 73.929 73.079 75.9505 77.7095C78.3227 83.1326 79.8697 87.8048 80.9836 92.8941C82.3244 99.0055 82.6132 102.259 82.4688 109.33C82.2831 118.758 81.2311 125.287 79.5397 127.623C78.4877 129.062 76.3837 130.105 71.5981 131.565C66.5031 133.129 65.2036 133.338 60.5624 133.359C56.6844 133.359 56.3131 133.317 54.3741 132.775C53.219 132.462 51.1356 131.627 49.6298 130.877C47.1132 129.625 45.1742 128.374 36.8407 122.596C31.2301 118.716 28.1153 117.465 25.3306 118.028C22.9997 118.487 21.9889 119.134 19.5136 121.699C16.9971 124.306 16.4401 124.661 11.3658 126.788C7.65281 128.332 2.35154 131.023 1.15514 131.94C0.433178 132.524 0.103138 132.921 0.0618825 133.338L0 133.922L1.1964 133.776C1.85648 133.692 4.39366 133.088 6.82771 132.441L11.2626 131.273L15.1818 131.294C18.9361 131.315 26.4032 131.794 30.1368 132.232C32.3439 132.483 35.8919 133.296 38.1815 134.026C39.151 134.339 43.3178 136.3 47.4639 138.365C51.61 140.45 57.262 143.162 60.0467 144.413C66.0493 147.104 73.6608 150.963 76.9406 152.965C78.2401 153.758 80.6948 155.406 82.4069 156.636C87.9144 160.62 89.9772 161.663 94.5978 162.894C100.105 164.333 106.149 165.084 116.958 165.689C122.94 166.022 124.343 166.189 126.921 166.857C130.758 167.837 134.099 169.318 137.833 171.717C138.988 172.467 140.37 173.239 140.886 173.427C142.784 174.115 144.908 175.2 147.466 176.806C148.91 177.703 152.169 179.643 154.727 181.124C157.285 182.584 160.441 184.398 161.74 185.149C163.04 185.9 165.701 187.548 167.619 188.799C174.014 192.971 177.273 194.89 180.511 196.329C184.266 197.998 189.257 200 189.691 200C189.876 200 190 199.812 190 199.562C190 197.998 187.69 195.745 183.77 193.492C180.986 191.865 180.14 191.24 180.779 191.24C180.945 191.24 181.728 191.511 182.533 191.865C184.224 192.595 185.524 192.908 185.874 192.7C186.06 192.575 185.957 192.283 185.503 191.615C184.472 190.092 183.605 189.467 182.038 189.07C180.676 188.737 177.355 187.214 175.726 186.192L174.963 185.712L173.972 186.109C171.559 187.068 170.775 186.859 166.155 184.044C157.78 178.913 150.911 173.823 145.96 169.088L143.898 167.107L141.525 166.648C135.791 165.501 128.282 162.873 127.973 161.892C127.808 161.413 130.675 160.182 133.811 159.431C136.348 158.805 137.276 158.43 139.463 157.033C140.391 156.448 141.546 155.823 142 155.656C143.279 155.197 147.982 155.28 151.385 155.802C153.077 156.073 154.706 156.198 155.47 156.136C157.739 155.969 159.719 154.717 160.523 152.965C161.018 151.901 161.018 151.213 160.523 150.108C160.296 149.607 160.049 148.856 159.987 148.397C159.698 146.562 158.296 146.103 153.696 146.291C149.075 146.499 142.454 145.894 139.463 145.018C138.163 144.622 138.122 144.664 140.907 143.788C143.629 142.932 144.826 141.973 144.496 140.93C144.413 140.68 143.588 139.637 142.639 138.657C141.69 137.655 140.907 136.654 140.907 136.446C140.927 136.237 141.03 135.507 141.175 134.819C141.402 133.797 141.402 133.234 141.195 131.794C140.927 130.042 140.927 130.001 141.525 128.228C142.165 126.35 142.557 123.701 142.557 121.24C142.557 120.051 142.66 119.551 143.072 118.779C143.732 117.527 144.063 115.296 143.794 113.898C143.691 113.314 143.299 112.271 142.928 111.562C142.268 110.269 142.268 110.227 142.289 107.62C142.309 106.181 142.474 104.011 142.68 102.802C143.031 100.528 143.052 100.32 142.99 98.943C142.887 96.586 143.155 88.0342 143.361 87.4919C143.526 87.0956 143.547 86.3447 143.464 85.4478C143.341 84.2381 143.382 83.9669 143.712 83.5915C144.001 83.2786 144.124 82.6946 144.228 81.1511C144.331 79.6076 144.475 78.8567 144.888 78.0015C145.383 76.9378 145.403 76.8335 145.115 76.1243C144.95 75.7071 144.681 75.1857 144.516 74.9354C144.269 74.5599 144.289 74.4139 144.661 73.7882C145.341 72.641 145.445 72.0361 145.135 70.7846L144.846 69.6583L145.548 68.4694C145.94 67.8019 146.27 67.0511 146.27 66.8008C146.27 66.5505 145.898 65.8413 145.445 65.2364C144.269 63.6512 144.351 63.088 145.857 62.1703C146.27 61.9408 146.785 61.5237 147.033 61.2525C147.714 60.5016 149.054 57.6441 149.776 55.3497C151.097 51.1781 151.468 50.1561 152.128 49.1132C152.499 48.5291 152.953 47.7991 153.139 47.4862C153.345 47.1525 154.026 46.6519 154.789 46.2973C156.192 45.609 156.542 45.2961 157.099 44.2324C157.553 43.2729 158.687 42.814 161.225 42.5429C163.617 42.2717 164.69 42.0214 165.041 41.5834C165.247 41.3331 165.164 41.1245 164.484 40.4571C163.329 39.2682 162.173 39.0179 156.79 38.6633C154.273 38.5173 152.169 38.3504 152.128 38.2879C152.066 38.2461 153.262 37.8498 154.768 37.4327C158.11 36.4732 159.121 36.0352 159.574 35.3677C159.884 34.888 159.884 34.7837 159.595 34.2414C159.162 33.3862 157.739 32.1139 156.645 31.6342C155.14 30.9667 153.118 31.3839 144.124 34.2831C141.072 35.2634 138.534 36.0143 138.493 35.9726C138.369 35.8475 141.67 33.5114 148.436 28.9643C151.736 26.7534 154.438 24.9387 154.459 24.9179C154.665 24.7719 153.964 23.1867 153.448 22.5818C152.623 21.6432 151.757 21.2051 150.766 21.2051C149.343 21.226 148.477 21.7266 139.277 27.7754C137.07 29.2355 135.172 30.4244 135.069 30.4244C134.966 30.4244 136.203 29.0478 137.833 27.3374C141.587 23.4578 145.589 18.8273 146.435 17.409C147.342 15.9281 147.672 14.2803 147.322 13.0914C147.012 12.0276 145.878 10.8179 145.218 10.8179C144.681 10.8179 143.794 11.6939 136.884 19.1611C134.264 21.9769 131.645 24.7927 131.047 25.4185L129.953 26.5657L130.552 25.627C130.902 25.1056 132.8 22.2898 134.78 19.3696C139.194 12.8619 140.865 10.1504 142.268 7.16771C143.856 3.85128 144.248 1.72377 143.547 0.32628C143.279 -0.195171 142.99 -0.111739 142.206 0.722582Z" fill="#21BDB9"/>
<path d="M255.107 142.859C248.006 142.859 242.404 141.782 238.301 139.627C236.96 138.908 236.21 137.671 236.053 135.915C235.895 131.526 236.092 127.416 236.644 123.585C236.881 122.467 237.197 121.908 237.591 121.908C238.065 121.908 238.341 122.547 238.42 123.824C238.893 133.8 245.126 138.789 257.12 138.789C263.589 138.789 268.915 136.873 273.097 133.042C277.358 129.131 279.488 123.704 279.488 116.761C279.488 109.258 277.121 103.512 272.387 99.5211C267.732 95.4507 262.09 93.2559 255.463 92.9366C252.701 92.8568 251.32 92.4178 251.32 91.6197C251.32 91.061 252.74 90.5822 255.581 90.1831C267.811 89.1456 273.926 82.8803 273.926 71.3873C273.926 69.0728 273.65 66.9178 273.097 64.9225C272.545 62.9272 271.638 60.9718 270.375 59.0563C269.113 57.1409 267.258 55.6244 264.812 54.5071C262.366 53.3897 259.408 52.831 255.936 52.831C246.31 52.831 241.3 57.4601 240.905 66.7183C240.826 67.9155 240.511 68.5141 239.958 68.5141C239.406 68.5141 239.13 67.9554 239.13 66.838C239.13 65.6409 239.051 63.6056 238.893 60.7324C238.735 57.7794 238.656 55.784 238.656 54.7465C238.656 53.3099 239.011 52.5117 239.722 52.3521C240.116 52.2723 240.589 52.1925 241.142 52.1127C241.773 51.9531 242.523 51.7535 243.391 51.5141C244.258 51.2747 245.008 51.0751 245.639 50.9155C250.373 49.6385 254.989 49 259.487 49C264.063 49 268.047 49.6385 271.44 50.9155C274.833 52.1925 277.358 53.8686 279.015 55.9437C280.751 58.0188 281.974 60.0939 282.684 62.169C283.473 64.2441 283.867 66.3193 283.867 68.3944C283.867 73.8216 282.21 78.3709 278.897 82.0423C275.662 85.7136 271.874 88.3873 267.535 90.0634C267.298 90.223 267.298 90.3427 267.535 90.4225C269.902 90.8216 272.269 91.5798 274.636 92.6972C277.082 93.7348 279.528 95.1714 281.974 97.007C284.42 98.7629 286.392 101.117 287.891 104.07C289.469 106.944 290.258 110.176 290.258 113.768C290.258 122.228 287.023 129.211 280.553 134.718C274.162 140.146 265.68 142.859 255.107 142.859Z" fill="black"/>
<path d="M330.931 135.676H350.696C357.798 135.676 362.413 135.556 364.544 135.317C365.096 135.157 365.214 134.798 364.899 134.239C362.768 128.573 358.981 118.038 353.537 102.634C348.093 87.2301 343.871 75.5376 340.873 67.5563C340.636 66.9977 340.4 66.9578 340.163 67.4366L319.806 128.134C318.386 132.124 317.676 134.319 317.676 134.718C317.676 134.958 317.912 135.157 318.386 135.317C320.358 135.556 324.54 135.676 330.931 135.676ZM364.662 140.824H324.659C317.478 140.824 312.35 140.944 309.273 141.183C306.274 141.343 304.144 141.981 302.882 143.099C301.698 144.296 301.027 146.251 300.87 148.965C300.712 150.322 300.357 151 299.804 151C299.252 151 298.976 150.282 298.976 148.845C298.976 146.61 298.739 142.181 298.266 135.556C298.187 134.838 298.424 134.479 298.976 134.479C301.343 134.878 304.854 135.077 309.509 135.077C310.219 135.077 310.851 134.559 311.403 133.521L339.808 54.0282C341.07 50.6761 342.057 49 342.767 49C343.319 49 344.108 50.277 345.134 52.831C345.449 53.5493 349.71 64.7629 357.916 86.4718C366.122 108.101 372.197 123.864 376.142 133.761C376.537 134.639 377.168 135.077 378.036 135.077C383.954 135.077 388.096 134.838 390.463 134.359C390.858 134.279 391.094 134.319 391.173 134.479C391.252 134.559 391.252 134.838 391.173 135.317C390.226 140.425 389.753 145.054 389.753 149.204C389.753 150.401 389.477 151 388.924 151C388.372 151 388.017 150.401 387.859 149.204C387.544 144.096 384.979 141.383 380.166 141.063C377.878 140.904 372.71 140.824 364.662 140.824Z" fill="black"/>
<path d="M409.163 106.465V85.3944C409.163 70.7089 409.084 62.0892 408.926 59.5352C408.768 57.3803 408.334 55.824 407.624 54.8662C406.993 53.8286 405.731 53.1103 403.837 52.7113C402.89 52.4718 401.549 52.3521 399.813 52.3521C399.182 52.3521 398.866 52.1127 398.866 51.6338C398.866 50.9953 399.497 50.6761 400.76 50.6761C402.338 50.6761 404.153 50.716 406.204 50.7958C408.256 50.7958 410.031 50.8357 411.53 50.9155C413.108 50.9953 413.976 51.0352 414.134 51.0352C414.765 51.0352 416.895 50.9953 420.525 50.9155C424.154 50.7559 426.995 50.6761 429.046 50.6761C438.909 50.6761 446.247 52.9507 451.06 57.5C455.005 61.331 456.978 66.5587 456.978 73.1831C456.978 81.0047 454.216 87.4695 448.693 92.5775C443.17 97.6855 436.226 100.239 427.863 100.239C426.6 100.239 425.772 100.2 425.377 100.12C424.509 100.12 424.075 99.8404 424.075 99.2817C424.075 98.5634 425.141 98.2042 427.271 98.2042C433.11 98.2042 437.962 96.3287 441.828 92.5775C445.774 88.8263 447.746 83.8779 447.746 77.7324C447.746 70.6291 445.537 64.8028 441.118 60.2535C437.252 56.2629 431.847 54.2676 424.904 54.2676C422.616 54.2676 420.919 54.5071 419.815 54.9859C419.183 55.2254 418.868 55.9836 418.868 57.2606V106.465C418.868 120.432 419.065 129.092 419.46 132.444C419.696 134.439 420.091 135.995 420.643 137.113C421.274 138.15 422.418 138.789 424.075 139.028C426.285 139.347 428.06 139.507 429.401 139.507C430.033 139.507 430.348 139.746 430.348 140.225C430.348 140.864 429.717 141.183 428.454 141.183C426.561 141.183 424.43 141.143 422.063 141.063C419.775 141.063 417.842 141.023 416.264 140.944C414.765 140.864 413.976 140.824 413.897 140.824H411.767C410.346 140.904 408.689 140.984 406.796 141.063C404.981 141.143 403.561 141.183 402.535 141.183C401.273 141.183 400.641 140.864 400.641 140.225C400.641 139.746 400.957 139.507 401.588 139.507C402.535 139.507 403.719 139.347 405.139 139.028C406.875 138.709 408.019 136.514 408.571 132.444C408.966 129.092 409.163 120.432 409.163 106.465Z" fill="black"/>
<path d="M515.989 105.866H490.543C489.991 105.866 489.596 106.185 489.359 106.824L482.258 128.014C481.153 131.127 480.601 133.8 480.601 136.035C480.601 137.153 481.035 138.031 481.903 138.669C482.771 139.228 483.757 139.507 484.862 139.507H485.927C486.953 139.507 487.466 139.746 487.466 140.225C487.466 140.864 486.756 141.183 485.335 141.183C484.231 141.183 482.534 141.103 480.246 140.944C478.037 140.864 476.774 140.824 476.459 140.824C476.38 140.824 474.684 140.864 471.37 140.944C468.056 141.103 465.294 141.183 463.085 141.183C461.586 141.183 460.836 140.864 460.836 140.225C460.836 139.746 461.389 139.507 462.493 139.507C463.124 139.507 464.071 139.427 465.334 139.268C467.858 138.948 469.831 137.871 471.251 136.035C472.672 134.12 474.013 131.446 475.275 128.014L502.142 53.669C503.246 50.5563 504.114 49 504.745 49C505.377 49 506.244 50.4366 507.349 53.3099C507.665 54.108 509.637 59.3756 513.267 69.1127C516.975 78.8498 520.96 89.3451 525.22 100.599C529.56 111.852 532.795 120.153 534.925 125.5C538.082 133.322 541.474 137.751 545.104 138.789C546.524 139.268 548.063 139.507 549.72 139.507C550.588 139.507 551.021 139.746 551.021 140.225C551.021 140.864 550.232 141.183 548.654 141.183C541.711 141.183 535.517 141.103 530.073 140.944C527.706 140.784 526.522 140.505 526.522 140.106C526.522 139.707 526.798 139.427 527.351 139.268C528.455 138.869 528.692 137.791 528.061 136.035L517.054 106.585C516.817 106.106 516.462 105.866 515.989 105.866ZM491.845 101.556H514.45C514.924 101.556 515.081 101.277 514.924 100.718L503.68 68.3944C503.128 66.5587 502.536 66.5587 501.905 68.3944L491.49 100.718C491.253 101.277 491.371 101.556 491.845 101.556Z" fill="black"/>
<path d="M566.929 106.465V85.3944C566.929 70.7089 566.85 62.0892 566.692 59.5352C566.534 57.3803 566.1 55.824 565.39 54.8662C564.759 53.8286 563.497 53.1103 561.603 52.7113C560.656 52.4718 559.512 52.3521 558.171 52.3521C557.145 52.3521 556.632 52.1127 556.632 51.6338C556.632 50.9953 557.263 50.6761 558.526 50.6761C560.104 50.6761 561.958 50.716 564.088 50.7958C566.219 50.7958 568.034 50.8357 569.533 50.9155C571.032 50.9953 571.821 51.0352 571.9 51.0352C572.61 51.0352 574.425 50.9953 577.344 50.9155C580.263 50.7559 582.749 50.6761 584.8 50.6761C589.377 50.6761 593.322 51.3146 596.636 52.5916C599.949 53.8686 602.395 55.5047 603.973 57.5C605.551 59.4953 606.696 61.4108 607.406 63.2465C608.116 65.0822 608.471 66.8779 608.471 68.6338C608.471 71.6667 607.84 74.6197 606.577 77.493C605.394 80.2864 604.171 82.4413 602.908 83.9578C601.646 85.4742 599.792 87.5493 597.346 90.1831C602.553 91.8592 607.248 94.892 611.43 99.2817C615.69 103.671 617.821 109.059 617.821 115.444C617.821 122.467 615.178 128.573 609.891 133.761C604.605 138.948 597.188 141.542 587.641 141.542C587.246 141.542 586.576 141.502 585.629 141.423C584.761 141.423 583.696 141.383 582.433 141.303C581.171 141.223 580.066 141.183 579.119 141.183C575.726 140.944 573.32 140.824 571.9 140.824C570.637 140.824 568.744 140.864 566.219 140.944C563.694 141.103 561.721 141.183 560.301 141.183C559.039 141.183 558.407 140.904 558.407 140.345C558.407 139.786 558.999 139.507 560.183 139.507C561.051 139.507 561.997 139.387 563.023 139.148C564.68 138.829 565.785 136.594 566.337 132.444C566.732 129.092 566.929 120.432 566.929 106.465ZM576.397 55.9437V88.0282C576.397 88.6667 576.673 89.1056 577.226 89.3451C579.119 89.6643 581.526 89.824 584.445 89.824C587.917 89.824 590.284 89.6643 591.546 89.3451C592.809 88.946 594.032 88.0681 595.215 86.7113C598.056 83.439 599.476 79.4085 599.476 74.6197C599.476 69.0329 598.135 64.2042 595.452 60.1338C592.848 56.0634 588.864 54.0282 583.498 54.0282C581.289 54.0282 579.395 54.2277 577.817 54.6268C576.871 54.8662 576.397 55.3052 576.397 55.9437ZM576.397 93.8944V100.718C576.397 116.761 576.437 125.38 576.516 126.577C576.673 128.972 576.792 130.608 576.871 131.486C577.028 132.284 577.383 133.082 577.936 133.88C578.488 134.678 579.356 135.357 580.539 135.915C582.985 137.113 586.457 137.711 590.955 137.711C592.769 137.711 594.545 137.472 596.281 136.993C598.095 136.434 599.871 135.556 601.606 134.359C603.421 133.162 604.881 131.406 605.985 129.092C607.09 126.697 607.642 123.904 607.642 120.711C607.642 116.401 606.735 112.052 604.92 107.662C603.184 103.272 600.265 99.6409 596.162 96.7676C593.479 94.9319 590.205 93.7747 586.339 93.2958C585.313 93.1362 582.236 93.0564 577.107 93.0564C576.634 93.0564 576.397 93.3357 576.397 93.8944Z" fill="black"/>
<path d="M653.868 64.9225L653.631 127.056C659.154 120.272 669.293 107.662 684.048 89.2254C698.881 70.7089 707.679 59.7347 710.441 56.3028C714.386 51.4343 716.95 49 718.134 49C718.607 49 718.923 49.2394 719.08 49.7183C719.317 50.1174 719.514 51.1549 719.672 52.831C719.83 54.5071 719.909 57.0211 719.909 60.3732C719.909 89.5047 720.027 111.533 720.264 126.458C720.343 130.927 720.698 134.08 721.329 135.915C722.039 137.671 723.302 138.709 725.117 139.028C725.984 139.188 727.523 139.347 729.732 139.507C730.916 139.587 731.508 139.866 731.508 140.345C731.508 140.904 730.916 141.183 729.732 141.183C728.075 141.183 724.998 141.103 720.501 140.944C716.003 140.864 713.557 140.824 713.163 140.824C712.453 140.824 710.875 140.864 708.429 140.944C706.062 141.103 704.089 141.183 702.511 141.183C701.327 141.183 700.736 140.944 700.736 140.465C700.736 139.906 701.327 139.587 702.511 139.507C704.247 139.347 705.391 139.188 705.943 139.028C707.521 138.709 708.547 137.432 709.02 135.197C709.573 132.962 709.888 129.331 709.967 124.303C710.125 117.04 710.204 106.585 710.204 92.9366C710.283 79.2089 710.362 69.6315 710.441 64.2042C704.444 71.7864 693.358 85.6338 677.183 105.746C661.087 125.859 651.974 137.113 649.844 139.507C647.792 141.742 646.333 142.859 645.465 142.859C644.833 142.859 644.399 142.46 644.163 141.662C644.005 140.944 643.926 139.427 643.926 137.113V67.4366C643.926 63.1268 643.729 59.9742 643.334 57.9789C642.94 55.9038 642.427 54.5869 641.796 54.0282C641.164 53.3897 640.139 52.9507 638.719 52.7113C638.166 52.6315 637.456 52.5517 636.588 52.4718C635.72 52.392 635.168 52.3521 634.931 52.3521C634.063 52.2723 633.629 51.993 633.629 51.5141C633.629 50.9554 634.418 50.6761 635.996 50.6761C637.338 50.6761 639.705 50.7559 643.098 50.9155C646.569 50.9953 648.542 51.0352 649.015 51.0352C650.357 51.0352 652.408 50.9953 655.17 50.9155C657.931 50.7559 659.825 50.6761 660.851 50.6761C662.192 50.6761 662.863 50.9155 662.863 51.3944C662.863 51.9531 662.35 52.2723 661.324 52.3521C659.746 52.5117 658.72 52.6315 658.247 52.7113C656.511 53.1103 655.367 54.0282 654.815 55.4648C654.262 56.8216 653.947 59.9742 653.868 64.9225Z" fill="black"/>
<path d="M757.866 106.465V85.3944C757.866 70.7089 757.787 62.0892 757.629 59.5352C757.472 57.3803 757.038 55.824 756.328 54.8662C755.696 53.8286 754.434 53.1103 752.54 52.7113C752.304 52.6315 751.988 52.5916 751.593 52.5916C751.199 52.5117 750.726 52.4718 750.173 52.4718C749.7 52.392 749.345 52.3521 749.108 52.3521C748.082 52.1925 747.569 51.9531 747.569 51.6338C747.569 50.9953 748.201 50.6761 749.463 50.6761C753.408 50.6761 757.866 50.7958 762.837 51.0352C779.091 51.0352 788.125 50.9953 789.94 50.9155C792.859 50.7559 794.674 50.5164 795.384 50.1972C796.015 49.8779 796.449 49.7183 796.686 49.7183C797.002 49.7183 797.159 50.0775 797.159 50.7958C797.159 50.9554 797.002 51.6338 796.686 52.831C796.449 53.9484 796.292 55.1455 796.213 56.4225L795.739 63.6056C795.581 64.9625 795.266 65.6409 794.792 65.6409C794.161 65.6409 793.846 65.1221 793.846 64.0845C793.846 62.4883 793.648 61.1714 793.254 60.1338C792.465 57.6596 789.624 56.1831 784.732 55.7042C782.681 55.4648 777.276 55.3451 768.518 55.3451C768.045 55.3451 767.808 55.7441 767.808 56.5423V89.5845C767.808 90.3826 768.045 90.7817 768.518 90.7817C779.249 90.7817 785.521 90.7019 787.336 90.5423C790.334 90.3028 792.307 89.6244 793.254 88.5071C793.885 87.7089 794.358 87.3099 794.674 87.3099C795.069 87.3099 795.266 87.6291 795.266 88.2676C795.266 88.4272 795.187 88.7864 795.029 89.3451C794.95 89.9038 794.832 90.7019 794.674 91.7394C794.516 92.777 794.398 93.8545 794.319 94.9718C794.161 96.4085 794.043 98.1244 793.964 100.12C793.885 102.035 793.846 103.033 793.846 103.113C793.688 104.31 793.412 104.908 793.017 104.908C792.465 104.908 792.189 104.27 792.189 102.993C792.189 101.716 792.031 100.599 791.715 99.6409C791.163 97.4061 789.111 96.0892 785.561 95.6902C782.01 95.2911 776.369 95.0916 768.636 95.0916C768.084 95.0916 767.808 95.3709 767.808 95.9296V106.465C767.808 107.183 767.808 109.258 767.808 112.69C767.808 116.042 767.808 119.075 767.808 121.789C767.808 124.502 767.808 126.218 767.808 126.937C767.966 129.57 768.281 131.566 768.755 132.923C769.307 134.2 770.293 135.117 771.714 135.676C773.449 136.394 776.724 136.754 781.537 136.754C786.271 136.754 789.822 136.394 792.189 135.676C794.003 135.117 795.345 134.2 796.213 132.923C797.081 131.566 797.751 129.531 798.225 126.817C798.461 125.62 798.816 125.021 799.29 125.021C799.763 125.021 800 125.62 800 126.817C800 127.376 799.803 129.171 799.408 132.204C799.014 135.237 798.698 137.312 798.461 138.43C798.067 139.946 797.515 140.824 796.804 141.063C796.094 141.383 794.516 141.542 792.07 141.542C789.782 141.542 784.022 141.423 774.791 141.183C765.322 140.944 760.391 140.824 759.996 140.824C759.207 140.824 757.827 140.904 755.854 141.063C753.882 141.223 752.343 141.263 751.238 141.183C749.976 141.183 749.345 140.864 749.345 140.225C749.345 139.906 749.779 139.667 750.647 139.507C752.146 139.347 753.053 139.228 753.369 139.148C754.789 138.829 755.815 137.911 756.446 136.394C757.156 134.878 757.551 132.045 757.629 127.894C757.787 121.669 757.866 114.526 757.866 106.465Z" fill="black"/>
</svg>
