<svg width="142" height="27" viewBox="0 0 142 27" fill="none" xmlns="http://www.w3.org/2000/svg">
<path d="M4.81075 24.8451C3.02286 24.8451 1.61241 24.5599 0.579409 23.9894C0.241697 23.7993 0.0529746 23.4718 0.0132436 23.007C-0.0264873 21.8451 0.0231764 20.757 0.162235 19.743C0.221831 19.4472 0.301293 19.2993 0.40062 19.2993C0.519813 19.2993 0.589342 19.4683 0.609208 19.8063C0.7284 22.4472 2.29777 23.7676 5.31732 23.7676C6.94629 23.7676 8.28721 23.2606 9.34008 22.2465C10.4128 21.2113 10.9492 19.7746 10.9492 17.9366C10.9492 15.9507 10.3532 14.4296 9.16129 13.3732C7.98923 12.2958 6.56885 11.7148 4.90015 11.6303C4.20486 11.6092 3.85721 11.493 3.85721 11.2817C3.85721 11.1338 4.21479 11.007 4.92995 10.9014C8.00909 10.6268 9.54867 8.96831 9.54867 5.92606C9.54867 5.31338 9.47914 4.74296 9.34008 4.21479C9.20102 3.68662 8.97257 3.16901 8.65472 2.66197C8.33687 2.15493 7.87003 1.75352 7.2542 1.45775C6.63838 1.16197 5.89342 1.01408 5.01934 1.01408C2.59575 1.01408 1.3343 2.23944 1.23497 4.69014C1.2151 5.00704 1.13564 5.16549 0.996584 5.16549C0.857526 5.16549 0.787997 5.01761 0.787997 4.72183C0.787997 4.40493 0.768131 3.8662 0.7284 3.10563C0.688669 2.32394 0.668804 1.79577 0.668804 1.52113C0.668804 1.14084 0.758198 0.929577 0.936988 0.887324C1.03631 0.866197 1.15551 0.84507 1.29457 0.823942C1.45349 0.78169 1.64221 0.728873 1.86073 0.665492C2.07925 0.602112 2.26797 0.549296 2.4269 0.507041C3.61883 0.169014 4.78095 0 5.91329 0C7.06548 0 8.06869 0.169014 8.9229 0.507041C9.77712 0.84507 10.4128 1.28873 10.83 1.83803C11.267 2.38732 11.5749 2.93662 11.7537 3.48592C11.9524 4.03521 12.0517 4.58451 12.0517 5.1338C12.0517 6.57042 11.6345 7.77465 10.8002 8.74648C9.98571 9.71831 9.03216 10.4261 7.93956 10.8697C7.87997 10.912 7.87997 10.9437 7.93956 10.9648C8.53553 11.0704 9.13149 11.2711 9.72746 11.5669C10.3433 11.8415 10.9591 12.2218 11.5749 12.7077C12.1908 13.1725 12.6874 13.7958 13.0649 14.5775C13.4622 15.338 13.6608 16.1937 13.6608 17.1444C13.6608 19.3838 12.8463 21.2324 11.2174 22.6901C9.60826 24.1268 7.47272 24.8451 4.81075 24.8451Z" fill="#202020"/>
<path d="M23.9012 22.9437H28.8774C30.6653 22.9437 31.8275 22.912 32.3638 22.8486C32.5029 22.8063 32.5327 22.7113 32.4532 22.5634C31.9169 21.0634 30.9633 18.2746 29.5926 14.1972C28.2219 10.1197 27.1591 7.02465 26.4042 4.91197C26.3446 4.76408 26.285 4.75352 26.2254 4.88028L21.1001 20.9472C20.7425 22.0035 20.5638 22.5845 20.5638 22.6901C20.5638 22.7535 20.6234 22.8063 20.7425 22.8486C21.2392 22.912 22.292 22.9437 23.9012 22.9437ZM32.3936 24.3063H22.3218C20.5141 24.3063 19.2228 24.338 18.4481 24.4014C17.6932 24.4437 17.1568 24.6127 16.839 24.9085C16.541 25.2254 16.3721 25.743 16.3324 26.4613C16.2927 26.8204 16.2033 27 16.0642 27C15.9252 27 15.8556 26.8099 15.8556 26.4296C15.8556 25.838 15.796 24.6655 15.6768 22.912C15.657 22.7218 15.7166 22.6268 15.8556 22.6268C16.4516 22.7324 17.3356 22.7852 18.5077 22.7852C18.6865 22.7852 18.8454 22.6479 18.9844 22.3732L26.136 1.33099C26.4539 0.443662 26.7022 0 26.881 0C27.02 0 27.2187 0.338028 27.4769 1.01408C27.5564 1.20423 28.6291 4.17254 30.6951 9.91901C32.7611 15.6444 34.2908 19.8169 35.2841 22.4366C35.3834 22.669 35.5423 22.7852 35.7608 22.7852C37.2507 22.7852 38.2937 22.7218 38.8896 22.5951C38.989 22.5739 39.0486 22.5845 39.0684 22.6268C39.0883 22.6479 39.0883 22.7218 39.0684 22.8486C38.83 24.2007 38.7109 25.4261 38.7109 26.5246C38.7109 26.8416 38.6413 27 38.5023 27C38.3632 27 38.2738 26.8416 38.2341 26.5246C38.1546 25.1725 37.509 24.4542 36.2972 24.3697C35.7211 24.3275 34.4199 24.3063 32.3936 24.3063Z" fill="#202020"/>
<path d="M43.5978 15.2113V9.6338C43.5978 5.74648 43.5779 3.46479 43.5382 2.78873C43.4984 2.21831 43.3892 1.80634 43.2104 1.55282C43.0515 1.27817 42.7336 1.08803 42.2568 0.982393C42.0185 0.919014 41.6807 0.887324 41.2437 0.887324C41.0848 0.887324 41.0053 0.823943 41.0053 0.697182C41.0053 0.528168 41.1642 0.443662 41.4821 0.443662C41.8794 0.443662 42.3363 0.454225 42.8528 0.475352C43.3693 0.475352 43.8163 0.485915 44.1937 0.507041C44.591 0.528168 44.8096 0.538731 44.8493 0.538731C45.0082 0.538731 45.5446 0.528168 46.4584 0.507041C47.3722 0.464788 48.0873 0.443662 48.6039 0.443662C51.087 0.443662 52.9345 1.04577 54.1463 2.25C55.1396 3.26408 55.6362 4.64789 55.6362 6.40141C55.6362 8.47183 54.9409 10.1831 53.5504 11.5352C52.1598 12.8873 50.4116 13.5634 48.3059 13.5634C47.988 13.5634 47.7794 13.5528 47.6801 13.5317C47.4616 13.5317 47.3523 13.4577 47.3523 13.3099C47.3523 13.1197 47.6205 13.0246 48.1569 13.0246C49.6269 13.0246 50.8487 12.5282 51.8221 11.5352C52.8153 10.5423 53.312 9.23239 53.312 7.60563C53.312 5.72535 52.7557 4.1831 51.6433 2.97887C50.6699 1.92253 49.3091 1.39437 47.5609 1.39437C46.9848 1.39437 46.5577 1.45775 46.2796 1.58451C46.1207 1.64789 46.0412 1.84859 46.0412 2.18662V15.2113C46.0412 18.9085 46.0909 21.2007 46.1902 22.088C46.2498 22.6162 46.3491 23.0282 46.4882 23.3239C46.6471 23.5986 46.9352 23.7676 47.3523 23.831C47.9086 23.9155 48.3555 23.9577 48.6932 23.9577C48.8522 23.9577 48.9316 24.0211 48.9316 24.1479C48.9316 24.3169 48.7727 24.4014 48.4549 24.4014C47.9781 24.4014 47.4417 24.3908 46.8458 24.3697C46.2697 24.3697 45.783 24.3592 45.3856 24.338C45.0082 24.3169 44.8095 24.3063 44.7897 24.3063H44.2533C43.8957 24.3275 43.4786 24.3486 43.0018 24.3697C42.5449 24.3908 42.1873 24.4014 41.9291 24.4014C41.6112 24.4014 41.4523 24.3169 41.4523 24.1479C41.4523 24.0211 41.5317 23.9577 41.6907 23.9577C41.9291 23.9577 42.227 23.9155 42.5846 23.831C43.0217 23.7465 43.3097 23.1655 43.4488 22.088C43.5481 21.2007 43.5978 18.9085 43.5978 15.2113Z" fill="#202020"/>
<path d="M70.4937 15.0528H64.087C63.948 15.0528 63.8487 15.1373 63.7891 15.3063L62.0012 20.9155C61.723 21.7394 61.584 22.4472 61.584 23.0387C61.584 23.3345 61.6932 23.5669 61.9118 23.7359C62.1303 23.8838 62.3786 23.9577 62.6567 23.9577H62.9249C63.1832 23.9577 63.3123 24.0211 63.3123 24.1479C63.3123 24.3169 63.1335 24.4014 62.7759 24.4014C62.4978 24.4014 62.0707 24.3803 61.4946 24.338C60.9384 24.3169 60.6205 24.3063 60.5411 24.3063C60.5212 24.3063 60.0941 24.3169 59.2597 24.338C58.4254 24.3803 57.7301 24.4014 57.1739 24.4014C56.7964 24.4014 56.6077 24.3169 56.6077 24.1479C56.6077 24.0211 56.7468 23.9577 57.0249 23.9577C57.1838 23.9577 57.4222 23.9366 57.74 23.8944C58.3757 23.8099 58.8724 23.5246 59.2299 23.0387C59.5875 22.5317 59.9252 21.8239 60.2431 20.9155L67.0073 1.23591C67.2854 0.411972 67.5039 0 67.6628 0C67.8217 0 68.0403 0.380282 68.3184 1.14085C68.3979 1.35211 68.8945 2.74648 69.8083 5.32394C70.742 7.90141 71.7452 10.6796 72.8179 13.6585C73.9105 16.6373 74.725 18.8345 75.2614 20.25C76.056 22.3204 76.9102 23.493 77.824 23.7676C78.1816 23.8944 78.569 23.9577 78.9861 23.9577C79.2047 23.9577 79.3139 24.0211 79.3139 24.1479C79.3139 24.3169 79.1153 24.4014 78.718 24.4014C76.9698 24.4014 75.4104 24.3803 74.0396 24.338C73.4437 24.2958 73.1457 24.2218 73.1457 24.1162C73.1457 24.0106 73.2152 23.9366 73.3543 23.8944C73.6324 23.7887 73.692 23.5035 73.5331 23.0387L70.7618 15.243C70.7022 15.1162 70.6128 15.0528 70.4937 15.0528ZM64.4148 13.912H70.1063C70.2255 13.912 70.2652 13.838 70.2255 13.6901L67.3946 5.1338C67.2556 4.64789 67.1066 4.64789 66.9477 5.1338L64.3254 13.6901C64.2658 13.838 64.2956 13.912 64.4148 13.912Z" fill="#202020"/>
<path d="M83.319 15.2113V9.6338C83.319 5.74648 83.2991 3.46479 83.2594 2.78873C83.2197 2.21831 83.1104 1.80634 82.9316 1.55282C82.7727 1.27817 82.4548 1.08803 81.9781 0.982393C81.7397 0.919014 81.4516 0.887324 81.1139 0.887324C80.8557 0.887324 80.7265 0.823943 80.7265 0.697182C80.7265 0.528168 80.8855 0.443662 81.2033 0.443662C81.6006 0.443662 82.0675 0.454225 82.6038 0.475352C83.1402 0.475352 83.5971 0.485915 83.9745 0.507041C84.352 0.528168 84.5506 0.538731 84.5705 0.538731C84.7493 0.538731 85.2062 0.528168 85.9412 0.507041C86.6762 0.464788 87.302 0.443662 87.8185 0.443662C88.9707 0.443662 89.964 0.612676 90.7983 0.950703C91.6327 1.28873 92.2485 1.72183 92.6458 2.25C93.0431 2.77817 93.3312 3.28521 93.51 3.77113C93.6888 4.25704 93.7781 4.73239 93.7781 5.19718C93.7781 6 93.6192 6.78169 93.3014 7.54225C93.0034 8.28169 92.6955 8.85211 92.3776 9.25352C92.0598 9.65493 91.5929 10.2042 90.9771 10.9014C92.2882 11.3451 93.4702 12.1479 94.5231 13.3099C95.5958 14.4718 96.1322 15.8979 96.1322 17.588C96.1322 19.4472 95.4667 21.0634 94.1357 22.4366C92.8047 23.8099 90.9374 24.4965 88.5337 24.4965C88.4343 24.4965 88.2655 24.4859 88.0271 24.4648C87.8086 24.4648 87.5404 24.4542 87.2225 24.4331C86.9047 24.412 86.6266 24.4014 86.3882 24.4014C85.534 24.338 84.9281 24.3063 84.5705 24.3063C84.2526 24.3063 83.7759 24.3169 83.1402 24.338C82.5045 24.3803 82.0079 24.4014 81.6503 24.4014C81.3324 24.4014 81.1735 24.3275 81.1735 24.1796C81.1735 24.0317 81.3225 23.9577 81.6205 23.9577C81.839 23.9577 82.0774 23.9261 82.3356 23.8627C82.7528 23.7782 83.0309 23.1866 83.17 22.088C83.2693 21.2007 83.319 18.9085 83.319 15.2113ZM85.7028 1.83803V10.331C85.7028 10.5 85.7724 10.6162 85.9114 10.6796C86.3882 10.7641 86.9941 10.8063 87.7291 10.8063C88.6032 10.8063 89.1992 10.7641 89.517 10.6796C89.8348 10.5739 90.1428 10.3415 90.4408 9.98239C91.1559 9.1162 91.5135 8.0493 91.5135 6.78169C91.5135 5.30282 91.1758 4.02465 90.5003 2.94718C89.8448 1.86972 88.8416 1.33099 87.4907 1.33099C86.9345 1.33099 86.4577 1.3838 86.0604 1.48944C85.822 1.55282 85.7028 1.66901 85.7028 1.83803ZM85.7028 11.8838V13.6901C85.7028 17.9366 85.7128 20.2183 85.7326 20.5352C85.7724 21.169 85.8022 21.6021 85.822 21.8345C85.8618 22.0458 85.9512 22.257 86.0902 22.4683C86.2293 22.6796 86.4478 22.8592 86.7458 23.007C87.3616 23.3239 88.2357 23.4824 89.368 23.4824C89.8249 23.4824 90.2719 23.419 90.7089 23.2923C91.1658 23.1444 91.6128 22.912 92.0499 22.5951C92.5068 22.2782 92.8743 21.8134 93.1524 21.2007C93.4305 20.5669 93.5696 19.8275 93.5696 18.9824C93.5696 17.8415 93.3411 16.6901 92.8842 15.5282C92.4472 14.3662 91.7121 13.4049 90.6791 12.6444C90.0037 12.1585 89.1793 11.8521 88.2059 11.7254C87.9476 11.6831 87.1729 11.662 85.8816 11.662C85.7624 11.662 85.7028 11.7359 85.7028 11.8838Z" fill="#202020"/>
<path d="M105.208 4.21479L105.148 20.662C106.539 18.8662 109.092 15.5282 112.806 10.6479C116.541 5.74648 118.756 2.84155 119.451 1.9331C120.445 0.644366 121.09 0 121.388 0C121.507 0 121.587 0.0633801 121.627 0.19014C121.686 0.295774 121.736 0.570422 121.776 1.01408C121.815 1.45775 121.835 2.12324 121.835 3.01056C121.835 10.7218 121.865 16.5528 121.925 20.5035C121.944 21.6866 122.034 22.5211 122.193 23.007C122.372 23.4718 122.689 23.7465 123.146 23.831C123.365 23.8732 123.752 23.9155 124.308 23.9577C124.606 23.9789 124.755 24.0528 124.755 24.1796C124.755 24.3275 124.606 24.4014 124.308 24.4014C123.891 24.4014 123.117 24.3803 121.984 24.338C120.852 24.3169 120.236 24.3063 120.137 24.3063C119.958 24.3063 119.561 24.3169 118.945 24.338C118.349 24.3803 117.852 24.4014 117.455 24.4014C117.157 24.4014 117.008 24.338 117.008 24.2113C117.008 24.0634 117.157 23.9789 117.455 23.9577C117.892 23.9155 118.18 23.8732 118.319 23.831C118.716 23.7465 118.975 23.4085 119.094 22.8169C119.233 22.2254 119.312 21.2641 119.332 19.9331C119.372 18.0106 119.392 15.243 119.392 11.6303C119.412 7.99648 119.432 5.46127 119.451 4.02465C117.942 6.03169 115.151 9.69718 111.078 15.0211C107.026 20.3451 104.731 23.3239 104.195 23.9577C103.678 24.5493 103.311 24.8451 103.092 24.8451C102.933 24.8451 102.824 24.7394 102.764 24.5282C102.725 24.338 102.705 23.9366 102.705 23.3239V4.88028C102.705 3.73944 102.655 2.90493 102.556 2.37676C102.456 1.82746 102.327 1.47887 102.168 1.33099C102.01 1.16197 101.751 1.04577 101.394 0.982393C101.255 0.961267 101.076 0.94014 100.857 0.919014C100.639 0.897887 100.5 0.887324 100.44 0.887324C100.222 0.866197 100.112 0.792253 100.112 0.665492C100.112 0.517605 100.311 0.443662 100.708 0.443662C101.046 0.443662 101.642 0.464788 102.496 0.507041C103.37 0.528168 103.867 0.538731 103.986 0.538731C104.324 0.538731 104.84 0.528168 105.536 0.507041C106.231 0.464788 106.708 0.443662 106.966 0.443662C107.304 0.443662 107.473 0.507042 107.473 0.633802C107.473 0.78169 107.343 0.866197 107.085 0.887324C106.688 0.929577 106.43 0.961267 106.31 0.982393C105.873 1.08803 105.585 1.33099 105.446 1.71127C105.307 2.07042 105.228 2.90493 105.208 4.21479Z" fill="#202020"/>
<path d="M131.392 15.2113V9.6338C131.392 5.74648 131.372 3.46479 131.332 2.78873C131.293 2.21831 131.183 1.80634 131.004 1.55282C130.846 1.27817 130.528 1.08803 130.051 0.982393C129.991 0.961267 129.912 0.950703 129.813 0.950703C129.713 0.929577 129.594 0.919014 129.455 0.919014C129.336 0.897887 129.246 0.887324 129.187 0.887324C128.929 0.84507 128.799 0.781689 128.799 0.697182C128.799 0.528168 128.958 0.443662 129.276 0.443662C130.269 0.443662 131.392 0.475352 132.643 0.538731C136.736 0.538731 139.01 0.528168 139.467 0.507041C140.202 0.464788 140.659 0.401408 140.838 0.316901C140.997 0.232394 141.106 0.19014 141.166 0.19014C141.245 0.19014 141.285 0.285211 141.285 0.475352C141.285 0.517605 141.245 0.697182 141.166 1.01408C141.106 1.30986 141.066 1.62676 141.046 1.96479L140.927 3.8662C140.888 4.22535 140.808 4.40493 140.689 4.40493C140.53 4.40493 140.45 4.26761 140.45 3.99296C140.45 3.57042 140.401 3.22183 140.302 2.94718C140.103 2.29225 139.388 1.90141 138.156 1.77465C137.64 1.71127 136.279 1.67958 134.074 1.67958C133.954 1.67958 133.895 1.78521 133.895 1.99648V10.743C133.895 10.9542 133.954 11.0599 134.074 11.0599C136.775 11.0599 138.355 11.0387 138.812 10.9965C139.566 10.9331 140.063 10.7535 140.302 10.4577C140.46 10.2465 140.58 10.1408 140.659 10.1408C140.758 10.1408 140.808 10.2254 140.808 10.3944C140.808 10.4366 140.788 10.5317 140.748 10.6796C140.729 10.8275 140.699 11.0387 140.659 11.3134C140.619 11.588 140.59 11.8732 140.57 12.169C140.53 12.5493 140.5 13.0035 140.48 13.5317C140.46 14.0387 140.45 14.3028 140.45 14.3239C140.411 14.6408 140.341 14.7993 140.242 14.7993C140.103 14.7993 140.033 14.6303 140.033 14.2923C140.033 13.9542 139.994 13.6585 139.914 13.4049C139.775 12.8134 139.259 12.4648 138.365 12.3592C137.471 12.2535 136.05 12.2007 134.103 12.2007C133.964 12.2007 133.895 12.2746 133.895 12.4225V15.2113C133.895 15.4014 133.895 15.9507 133.895 16.8592C133.895 17.7465 133.895 18.5493 133.895 19.2676C133.895 19.9859 133.895 20.4401 133.895 20.6303C133.935 21.3275 134.014 21.8556 134.133 22.2148C134.272 22.5528 134.521 22.7958 134.878 22.9437C135.315 23.1338 136.14 23.2289 137.351 23.2289C138.543 23.2289 139.437 23.1338 140.033 22.9437C140.49 22.7958 140.828 22.5528 141.046 22.2148C141.265 21.8556 141.434 21.3169 141.553 20.5986C141.613 20.2817 141.702 20.1232 141.821 20.1232C141.94 20.1232 142 20.2817 142 20.5986C142 20.7465 141.95 21.2218 141.851 22.0246C141.752 22.8275 141.672 23.3768 141.613 23.6725C141.513 24.0739 141.374 24.3063 141.195 24.3697C141.017 24.4542 140.619 24.4965 140.004 24.4965C139.427 24.4965 137.977 24.4648 135.653 24.4014C133.269 24.338 132.028 24.3063 131.928 24.3063C131.73 24.3063 131.382 24.3275 130.885 24.3697C130.389 24.412 130.001 24.4225 129.723 24.4014C129.405 24.4014 129.246 24.3169 129.246 24.1479C129.246 24.0634 129.356 24 129.574 23.9577C129.952 23.9155 130.18 23.8838 130.26 23.8627C130.617 23.7782 130.875 23.5352 131.034 23.1338C131.213 22.7324 131.312 21.9824 131.332 20.8838C131.372 19.2359 131.392 17.3451 131.392 15.2113Z" fill="#202020"/>
</svg>
